<?xml version="1.0" standalone="no"?>
<!DOCTYPE svg PUBLIC "-//W3C//DTD SVG 20010904//EN"
 "http://www.w3.org/TR/2001/REC-SVG-20010904/DTD/svg10.dtd">
<svg version="1.0" xmlns="http://www.w3.org/2000/svg"
 width="200.000000pt" height="200.000000pt" viewBox="0 0 200.000000 200.000000"
 preserveAspectRatio="xMidYMid meet">
<metadata>
Created by potrace 1.11, written by Peter Selinger 2001-2013
</metadata>
<g transform="translate(0.000000,200.000000) scale(0.100000,-0.100000)"
fill="#000000" stroke="none">
<path d="M965 1704 c-9 -10 -14 -25 -11 -37 3 -12 -11 -54 -31 -99 -50 -109
-57 -111 -190 -51 -88 39 -107 51 -115 76 -19 52 -82 56 -108 7 -25 -46 44
-106 86 -75 15 10 33 5 115 -33 97 -44 97 -45 97 -81 0 -30 -8 -44 -52 -88
-50 -49 -55 -52 -85 -43 -36 10 -68 1 -95 -25 -16 -17 -22 -16 -95 16 -61 26
-81 39 -89 61 -18 48 -92 34 -92 -17 0 -34 35 -60 63 -48 18 8 38 4 104 -26
74 -32 83 -39 83 -63 0 -15 5 -30 10 -33 5 -3 10 -13 10 -21 0 -24 -69 -121
-96 -132 -14 -7 -24 -20 -24 -31 0 -24 32 -44 54 -35 15 6 18 11 20 44 1 8 19
41 40 73 36 52 42 57 67 52 16 -4 39 0 56 9 28 14 32 13 76 -17 26 -18 46 -39
45 -47 -6 -48 44 -90 83 -69 11 6 29 19 39 29 10 10 62 31 116 48 l98 31 28
-20 c20 -14 40 -20 66 -17 32 2 46 -3 85 -36 26 -22 47 -47 47 -56 0 -44 72
-51 85 -9 9 27 -22 62 -49 55 -14 -4 -34 8 -66 38 -38 35 -45 47 -39 64 12 31
-9 82 -37 92 -24 9 -24 12 -24 135 0 107 2 125 16 125 8 0 56 -23 105 -52 85
-50 93 -57 164 -159 41 -59 75 -112 75 -117 0 -17 27 -33 44 -26 21 8 20 30
-2 46 -15 11 -128 160 -155 204 -11 18 119 124 152 124 33 0 51 16 51 46 0 28
-34 54 -60 47 -17 -5 -37 -38 -32 -55 1 -3 -24 -28 -55 -55 -31 -26 -62 -54
-70 -62 -12 -11 -27 -5 -101 37 -50 29 -88 58 -91 69 -6 33 -33 54 -66 51 -23
-1 -44 8 -75 33 -70 54 -100 84 -113 110 -16 30 -39 35 -62 13z m128 -125 c47
-38 77 -69 77 -80 0 -11 9 -28 20 -39 18 -18 20 -33 20 -139 0 -66 -4 -122 -8
-125 -9 -5 -43 20 -116 86 -23 21 -64 57 -92 80 -29 24 -58 58 -67 76 -14 31
-13 36 10 85 48 101 58 117 68 117 6 0 46 -28 88 -61z m-48 -305 c44 -38 88
-76 98 -86 15 -13 16 -20 8 -36 -6 -11 -8 -22 -5 -24 9 -10 -23 -25 -114 -52
l-93 -28 -21 22 c-17 18 -28 21 -58 17 -30 -4 -44 1 -79 27 -40 29 -43 34 -46
86 -3 54 -2 56 49 106 41 41 58 51 77 47 13 -2 33 3 44 11 18 13 22 13 40 -3
11 -9 56 -48 100 -87z"/>
<path d="M100 685 l0 -146 112 3 c106 3 111 4 114 26 4 24 6 24 -93 25 l-63 0
0 33 0 34 64 0 c54 0 64 3 69 19 8 30 -4 36 -70 36 l-63 -1 0 31 0 32 75 -1
75 -1 0 27 0 28 -110 0 -110 0 0 -145z"/>
<path d="M362 761 c-7 -4 4 -26 28 -58 l40 -51 -40 -51 c-22 -28 -40 -53 -40
-56 0 -3 16 -5 35 -5 28 0 39 6 58 34 l23 34 23 -34 c20 -29 29 -34 62 -34
l39 0 -44 56 -44 57 39 52 c21 28 39 54 39 57 0 3 -14 4 -32 2 -20 -3 -41 -16
-59 -37 -16 -17 -29 -27 -29 -22 -3 36 -69 74 -98 56z"/>
<path d="M626 763 c-3 -3 -6 -73 -6 -154 0 -155 1 -160 47 -151 19 4 23 10 22
41 -2 58 -1 65 14 54 23 -19 60 -22 93 -8 88 37 91 165 5 209 -30 16 -85 14
-106 -4 -9 -8 -14 -8 -17 1 -4 13 -42 22 -52 12z m164 -85 c13 -25 13 -31 0
-55 -31 -55 -104 -35 -102 28 2 62 72 80 102 27z"/>
<path d="M965 756 c-43 -19 -66 -49 -71 -93 -11 -94 86 -154 184 -114 37 16
39 22 13 45 -12 11 -21 14 -26 7 -9 -16 -68 -13 -91 3 -10 8 -17 17 -14 20 3
2 43 6 89 7 l83 2 -7 35 c-8 41 -21 65 -45 80 -30 19 -84 23 -115 8z m87 -58
c15 -24 8 -28 -42 -28 -54 0 -59 4 -34 32 19 20 62 18 76 -4z"/>
<path d="M1175 762 c-3 -3 -5 -54 -5 -114 l0 -108 34 0 33 0 1 72 c1 57 4 75
18 85 49 36 79 3 79 -86 l0 -66 33 -3 32 -3 0 84 c0 69 -4 89 -20 110 -26 33
-60 40 -109 23 -23 -7 -38 -10 -35 -5 3 5 2 9 -3 10 -4 0 -18 2 -31 3 -12 2
-24 0 -27 -2z"/>
<path d="M1504 762 c-52 -8 -78 -87 -38 -116 10 -8 36 -16 57 -19 22 -3 44
-10 50 -16 17 -17 -32 -29 -77 -19 -29 7 -41 6 -47 -4 -16 -25 -9 -36 29 -45
83 -21 162 10 162 64 0 34 -31 59 -84 67 -36 6 -46 11 -44 23 4 20 34 26 70
13 23 -7 30 -6 39 12 16 29 -1 39 -71 42 -14 1 -35 0 -46 -2z"/>
<path d="M1732 755 c-84 -36 -88 -174 -6 -205 47 -18 112 -16 139 4 19 14 19
15 1 35 -13 15 -23 18 -30 11 -17 -17 -72 -11 -91 10 -18 20 -17 20 68 20 87
0 87 0 87 25 0 35 -26 82 -53 96 -31 17 -79 19 -115 4z m96 -62 c12 -17 9 -18
-39 -21 -61 -4 -72 3 -41 28 26 22 61 18 80 -7z"/>
<path d="M1070 445 c-6 -23 -5 -165 2 -165 5 0 8 8 8 19 0 10 6 24 14 30 11 9
19 5 39 -19 14 -16 31 -30 37 -30 7 0 0 14 -14 31 -32 38 -33 55 -4 70 14 7
18 14 11 16 -7 3 -27 -9 -45 -26 l-33 -31 -6 58 c-3 31 -7 53 -9 47z"/>
<path d="M573 433 c4 -3 17 -7 30 -8 20 -1 22 -8 28 -76 8 -103 11 -92 18 58
1 17 6 21 26 18 14 -1 25 2 25 6 0 5 -30 9 -67 9 -36 0 -63 -3 -60 -7z"/>
<path d="M720 343 c0 -62 15 -79 17 -20 1 30 8 46 25 59 l23 17 -32 -2 c-33
-2 -33 -2 -33 -54z"/>
<path d="M815 390 c-15 -7 -11 -9 20 -7 31 2 40 -2 43 -15 3 -13 -3 -18 -21
-18 -38 0 -57 -10 -57 -30 0 -25 17 -34 63 -35 l38 -1 -2 41 c-4 71 -28 90
-84 65z m65 -66 c0 -20 -32 -34 -53 -22 -14 7 -15 13 -7 23 14 17 60 16 60 -1z"/>
<path d="M953 385 c-29 -20 -30 -58 -3 -85 24 -24 49 -25 76 -5 21 16 12 20
-14 6 -23 -12 -58 3 -65 28 -10 39 40 73 72 47 11 -9 13 -8 9 4 -7 21 -49 24
-75 5z"/>
<path d="M1201 381 c-20 -20 -21 -29 -8 -68 12 -33 97 -43 97 -12 0 6 -6 7
-16 1 -27 -15 -73 3 -74 29 0 4 18 6 40 5 56 -3 67 6 46 38 -20 31 -58 34 -85
7z m69 -6 c18 -21 9 -27 -36 -23 -36 3 -37 4 -20 21 21 21 40 22 56 2z"/>
<path d="M1330 340 c0 -68 15 -83 17 -18 1 31 8 47 25 60 17 13 19 18 8 18 -9
0 -22 -6 -29 -12 -11 -10 -13 -10 -7 0 4 6 2 12 -3 12 -7 0 -11 -24 -11 -60z"/>
</g>
</svg>
